<svg width="80" height="80" viewBox="0 0 80 80" fill="none" xmlns="http://www.w3.org/2000/svg">
<path d="M5.33333 5.33333H26.6667V0H0V26.6667H5.33333V5.33333Z" fill="black"/>
<path d="M26.6665 26.6665V10.6665H10.6665V26.6665H26.6665ZM15.9998 15.9998H21.3332V21.3332H15.9998V15.9998Z" fill="black"/>
<path d="M52 5.33333H74.6667V26.6667H80V0H52V5.33333Z" fill="black"/>
<path d="M69.3335 26.6665V10.6665H53.3335V26.6665H69.3335ZM58.6668 15.9998H64.0002V21.3332H58.6668V15.9998Z" fill="black"/>
<path d="M26.6667 74.6668H5.33333V53.3335H0V80.0002H26.6667V74.6668Z" fill="black"/>
<path d="M26.6665 53.3335H10.6665V69.3335H26.6665V53.3335ZM21.3332 64.0002H15.9998V58.6668H21.3332V64.0002Z" fill="black"/>
<path d="M74.6667 74.6668H52V80.0002H80V53.3335H74.6667V74.6668Z" fill="black"/>
<path d="M42.667 47.9998H64.0003V58.6665H69.3337V42.6665H42.667V47.9998Z" fill="black"/>
<path d="M69.3332 69.3332V63.9998H37.3332V42.6665H10.6665V47.9998H31.9998V69.3332H69.3332Z" fill="black"/>
<path d="M37.3333 10.6665H32V26.6665H37.3333V10.6665Z" fill="black"/>
<path d="M10.6665 37.3332H47.9998V10.6665H42.6665V31.9998H10.6665V37.3332Z" fill="black"/>
<path d="M69.3335 32H53.3335V37.3333H69.3335V32Z" fill="black"/>
<path d="M58.6668 53.3335H53.3335V58.6668H58.6668V53.3335Z" fill="black"/>
<path d="M48.0003 53.3335H42.667V58.6668H48.0003V53.3335Z" fill="black"/>
</svg>
